<?xml version="1.0" standalone="no"?><svg xmlns:xlink="http://www.w3.org/1999/xlink" xmlns="http://www.w3.org/2000/svg" viewBox="0 0 2000 1272.7426069755495" preserveAspectRatio="xMaxYMax slice"><g transform="scale(2.5557080461356416)"><rect x="0" y="0" width="782.5714285714286" height="498" fill="none"/><path d="M 0 213.43 A 71.14 71.14 0 0 1  71.14 142.29 L 0 213.43 A 71.14 71.14 0 0 0 71.14 142.29" fill="#3356e5"/><rect x="142.28571428571428" y="142.28571428571428" width="71.14285714285714" height="71.14285714285714" fill="none"/><path d="M 177.86 177.85999999999999 A 35.57 35.57 0 0 1  213.43 142.29 L 177.86 177.85999999999999 A 35.57 35.57 0 0 0 213.43 142.29" fill="#afbcf5"/><path d="M 177.86 177.86 A 35.57 35.57 0 0 1  213.43 213.43 L 177.86 177.86 A 35.57 35.57 0 0 0 213.43 213.43" fill="#d7defa"/><path d="M 426.86 142.29 A 71.14 71.14 0 0 1  498 213.43 L 426.86 142.29 A 71.14 71.14 0 0 0 498 213.43" fill="#758ced"/><rect x="498" y="142.28571428571428" width="71.14285714285714" height="71.14285714285714" fill="none"/><path d="M 533.57 177.85999999999999 A 35.57 35.57 0 0 1  569.1400000000001 142.29 L 533.57 177.85999999999999 A 35.57 35.57 0 0 0 569.1400000000001 142.29" fill="#e6ebfc"/><rect x="569.1428571428571" y="142.28571428571428" width="71.14285714285714" height="71.14285714285714" fill="none"/><path d="M 604.71 177.85999999999999 A 35.57 35.57 0 0 1  640.2800000000001 142.29 L 604.71 177.85999999999999 A 35.57 35.57 0 0 0 640.2800000000001 142.29" fill="#99aaf2"/><path d="M 569.14 213.43 A 35.57 35.57 0 0 1  604.71 177.86 L 569.14 213.43 A 35.57 35.57 0 0 0 604.71 177.86" fill="#ecf0fd"/><path d="M 604.71 213.43 A 35.57 35.57 0 0 1  640.2800000000001 177.86 L 604.71 213.43 A 35.57 35.57 0 0 0 640.2800000000001 177.86" fill="#2045e2"/><path d="M 711.43 213.43 A 71.14 71.14 0 0 1  782.5699999999999 142.29 L 711.43 213.43 A 71.14 71.14 0 0 0 782.5699999999999 142.29" fill="#b3c0f5"/><rect x="284.57142857142856" y="213.42857142857142" width="71.14285714285714" height="71.14285714285714" fill="none"/><path d="M 320.14 213.43 A 35.57 35.57 0 0 1  355.71 249 L 320.14 213.43 A 35.57 35.57 0 0 0 355.71 249" fill="#c9d2f8"/><path d="M 320.14 284.57 A 35.57 35.57 0 0 1  355.71 249 L 320.14 284.57 A 35.57 35.57 0 0 0 355.71 249" fill="#f8f9fe"/><path d="M 355.71 284.57 A 71.14 71.14 0 0 1  426.84999999999997 213.43 L 355.71 284.57 A 71.14 71.14 0 0 0 426.84999999999997 213.43" fill="#a5b4f3"/><rect x="498" y="213.42857142857142" width="71.14285714285714" height="71.14285714285714" fill="none"/><path d="M 533.57 213.43 A 35.57 35.57 0 0 1  569.1400000000001 249 L 533.57 213.43 A 35.57 35.57 0 0 0 569.1400000000001 249" fill="#e3e8fb"/><path d="M 498 249 A 35.57 35.57 0 0 1  533.57 284.57 L 498 249 A 35.57 35.57 0 0 0 533.57 284.57" fill="#6e87ec"/><path d="M 533.57 284.57 A 35.57 35.57 0 0 1  569.1400000000001 249 L 533.57 284.57 A 35.57 35.57 0 0 0 569.1400000000001 249" fill="#dee3fb"/><rect x="569.1428571428571" y="213.42857142857142" width="71.14285714285714" height="71.14285714285714" fill="none"/><path d="M 604.71 249 A 35.57 35.57 0 0 1  640.2800000000001 213.43 L 604.71 249 A 35.57 35.57 0 0 0 640.2800000000001 213.43" fill="#7a91ee"/><path d="M 604.71 284.57 A 35.57 35.57 0 0 1  640.2800000000001 249 L 604.71 284.57 A 35.57 35.57 0 0 0 640.2800000000001 249" fill="#e9edfc"/><path d="M 711.43 213.43 A 71.14 71.14 0 0 1  782.5699999999999 284.57 L 711.43 213.43 A 71.14 71.14 0 0 0 782.5699999999999 284.57" fill="#768ded"/><rect x="0" y="284.57142857142856" width="71.14285714285714" height="71.14285714285714" fill="none"/><path d="M 35.57 320.14 A 35.57 35.57 0 0 1  71.14 284.57 L 35.57 320.14 A 35.57 35.57 0 0 0 71.14 284.57" fill="#d7ddfa"/><path d="M 35.57 320.14 A 35.57 35.57 0 0 1  71.14 355.71 L 35.57 320.14 A 35.57 35.57 0 0 0 71.14 355.71" fill="#647eeb"/><rect x="71.14285714285714" y="284.57142857142856" width="71.14285714285714" height="71.14285714285714" fill="none"/><path d="M 71.14 320.14 A 35.57 35.57 0 0 1  106.71000000000001 355.71 L 71.14 320.14 A 35.57 35.57 0 0 0 106.71000000000001 355.71" fill="#b3c0f5"/><path d="M 106.71 355.71 A 35.57 35.57 0 0 1  142.28 320.14 L 106.71 355.71 A 35.57 35.57 0 0 0 142.28 320.14" fill="#8499ef"/><rect x="142.28571428571428" y="284.57142857142856" width="71.14285714285714" height="71.14285714285714" fill="none"/><path d="M 177.86 320.14 A 35.57 35.57 0 0 1  213.43 284.57 L 177.86 320.14 A 35.57 35.57 0 0 0 213.43 284.57" fill="#516fe8"/><path d="M 142.29 320.14 A 35.57 35.57 0 0 1  177.85999999999999 355.71 L 142.29 320.14 A 35.57 35.57 0 0 0 177.85999999999999 355.71" fill="#5a76ea"/><path d="M 177.86 320.14 A 35.57 35.57 0 0 1  213.43 355.71 L 177.86 320.14 A 35.57 35.57 0 0 0 213.43 355.71" fill="#8ea1f0"/><rect x="284.57142857142856" y="284.57142857142856" width="71.14285714285714" height="71.14285714285714" fill="none"/><path d="M 320.14 284.57 A 35.57 35.57 0 0 1  355.71 320.14 L 320.14 284.57 A 35.57 35.57 0 0 0 355.71 320.14" fill="#acbaf4"/><path d="M 284.57 320.14 A 35.57 35.57 0 0 1  320.14 355.71 L 284.57 320.14 A 35.57 35.57 0 0 0 320.14 355.71" fill="#879bef"/><path d="M 320.14 320.14 A 35.57 35.57 0 0 1  355.71 355.71 L 320.14 320.14 A 35.57 35.57 0 0 0 355.71 355.71" fill="#e9edfc"/><path d="M 711.43 284.57 A 71.14 71.14 0 0 1  782.5699999999999 355.71 L 711.43 284.57 A 71.14 71.14 0 0 0 782.5699999999999 355.71" fill="#bcc7f6"/><path d="M 71.14 426.84999999999997 A 71.14 71.14 0 0 1  142.28 355.71 L 71.14 426.84999999999997 A 71.14 71.14 0 0 0 142.28 355.71" fill="#a3b3f3"/><path d="M 142.29 355.71 A 71.14 71.14 0 0 1  213.43 426.84999999999997 L 142.29 355.71 A 71.14 71.14 0 0 0 213.43 426.84999999999997" fill="#4161e6"/><rect x="213.42857142857142" y="355.71428571428567" width="71.14285714285714" height="71.14285714285714" fill="none"/><path d="M 213.43 391.28 A 35.57 35.57 0 0 1  249 355.71 L 213.43 391.28 A 35.57 35.57 0 0 0 249 355.71" fill="#c1cbf7"/><path d="M 249 391.28 A 35.57 35.57 0 0 1  284.57 355.71 L 249 391.28 A 35.57 35.57 0 0 0 284.57 355.71" fill="#3658e5"/><path d="M 213.43 426.86 A 35.57 35.57 0 0 1  249 391.29 L 213.43 426.86 A 35.57 35.57 0 0 0 249 391.29" fill="#516fe8"/><path d="M 249 391.29 A 35.57 35.57 0 0 1  284.57 426.86 L 249 391.29 A 35.57 35.57 0 0 0 284.57 426.86" fill="#b2bff5"/><rect x="284.57142857142856" y="355.71428571428567" width="71.14285714285714" height="71.14285714285714" fill="none"/><path d="M 284.57 391.28 A 35.57 35.57 0 0 1  320.14 355.71 L 284.57 391.28 A 35.57 35.57 0 0 0 320.14 355.71" fill="#f1f3fd"/><path d="M 320.14 391.29 A 35.57 35.57 0 0 1  355.71 426.86 L 320.14 391.29 A 35.57 35.57 0 0 0 355.71 426.86" fill="#1a40e1"/><path d="M 355.71 426.84999999999997 A 71.14 71.14 0 0 1  426.84999999999997 355.71 L 355.71 426.84999999999997 A 71.14 71.14 0 0 0 426.84999999999997 355.71" fill="#e0e5fb"/><rect x="426.85714285714283" y="355.71428571428567" width="71.14285714285714" height="71.14285714285714" fill="none"/><path d="M 462.43 355.71 A 35.57 35.57 0 0 1  498 391.28 L 462.43 355.71 A 35.57 35.57 0 0 0 498 391.28" fill="#6781eb"/><path d="M 426.86 426.86 A 35.57 35.57 0 0 1  462.43 391.29 L 426.86 426.86 A 35.57 35.57 0 0 0 462.43 391.29" fill="#a7b6f4"/><path d="M 462.43 426.86 A 35.57 35.57 0 0 1  498 391.29 L 462.43 426.86 A 35.57 35.57 0 0 0 498 391.29" fill="#3053e4"/><rect x="498" y="355.71428571428567" width="71.14285714285714" height="71.14285714285714" fill="none"/><path d="M 498 391.28 A 35.57 35.57 0 0 1  533.57 355.71 L 498 391.28 A 35.57 35.57 0 0 0 533.57 355.71" fill="#bdc8f6"/><path d="M 498 426.86 A 35.57 35.57 0 0 1  533.57 391.29 L 498 426.86 A 35.57 35.57 0 0 0 533.57 391.29" fill="#abb9f4"/><path d="M 569.14 426.84999999999997 A 71.14 71.14 0 0 1  640.28 355.71 L 569.14 426.84999999999997 A 71.14 71.14 0 0 0 640.28 355.71" fill="#b1bef5"/><rect x="640.2857142857142" y="355.71428571428567" width="71.14285714285714" height="71.14285714285714" fill="none"/><path d="M 640.29 391.28 A 35.57 35.57 0 0 1  675.86 355.71 L 640.29 391.28 A 35.57 35.57 0 0 0 675.86 355.71" fill="#a3b2f3"/><path d="M 675.86 391.29 A 35.57 35.57 0 0 1  711.4300000000001 426.86 L 675.86 391.29 A 35.57 35.57 0 0 0 711.4300000000001 426.86" fill="#e8ebfc"/><path d="M 711.43 355.71 A 71.14 71.14 0 0 1  782.5699999999999 426.84999999999997 L 711.43 355.71 A 71.14 71.14 0 0 0 782.5699999999999 426.84999999999997" fill="#f2f5fd"/><rect x="0" y="426.85714285714283" width="71.14285714285714" height="71.14285714285714" fill="none"/><path d="M 0 426.86 A 35.57 35.57 0 0 1  35.57 462.43 L 0 426.86 A 35.57 35.57 0 0 0 35.57 462.43" fill="#99aaf2"/><path d="M 35.57 462.43 A 35.57 35.57 0 0 1  71.14 426.86 L 35.57 462.43 A 35.57 35.57 0 0 0 71.14 426.86" fill="#4766e7"/><path d="M 0 462.43 A 35.57 35.57 0 0 1  35.57 498 L 0 462.43 A 35.57 35.57 0 0 0 35.57 498" fill="#607bea"/><path d="M 35.57 462.43 A 35.57 35.57 0 0 1  71.14 498 L 35.57 462.43 A 35.57 35.57 0 0 0 71.14 498" fill="#8096ef"/><rect x="71.14285714285714" y="426.85714285714283" width="71.14285714285714" height="71.14285714285714" fill="none"/><path d="M 71.14 462.43 A 35.57 35.57 0 0 1  106.71000000000001 426.86 L 71.14 462.43 A 35.57 35.57 0 0 0 106.71000000000001 426.86" fill="#2348e2"/><path d="M 106.71 462.43 A 35.57 35.57 0 0 1  142.28 426.86 L 106.71 462.43 A 35.57 35.57 0 0 0 142.28 426.86" fill="#5a76ea"/><path d="M 71.14 498 A 35.57 35.57 0 0 1  106.71000000000001 462.43 L 71.14 498 A 35.57 35.57 0 0 0 106.71000000000001 462.43" fill="#dae0fa"/><path d="M 106.71 462.43 A 35.57 35.57 0 0 1  142.28 498 L 106.71 462.43 A 35.57 35.57 0 0 0 142.28 498" fill="#3c5de6"/><path d="M 142.29 426.86 A 71.14 71.14 0 0 1  213.43 498 L 142.29 426.86 A 71.14 71.14 0 0 0 213.43 498" fill="#6d86ec"/><rect x="213.42857142857142" y="426.85714285714283" width="71.14285714285714" height="71.14285714285714" fill="none"/><path d="M 213.43 462.43 A 35.57 35.57 0 0 1  249 426.86 L 213.43 462.43 A 35.57 35.57 0 0 0 249 426.86" fill="#6d86ec"/><path d="M 249 426.86 A 35.57 35.57 0 0 1  284.57 462.43 L 249 426.86 A 35.57 35.57 0 0 0 284.57 462.43" fill="#2e51e4"/><path d="M 213.43 462.43 A 35.57 35.57 0 0 1  249 498 L 213.43 462.43 A 35.57 35.57 0 0 0 249 498" fill="#6a83ec"/><path d="M 249 462.43 A 35.57 35.57 0 0 1  284.57 498 L 249 462.43 A 35.57 35.57 0 0 0 284.57 498" fill="#94a6f1"/><path d="M 284.57 498 A 71.14 71.14 0 0 1  355.71 426.86 L 284.57 498 A 71.14 71.14 0 0 0 355.71 426.86" fill="#8b9ef0"/><path d="M 355.71 426.86 A 71.14 71.14 0 0 1  426.84999999999997 498 L 355.71 426.86 A 71.14 71.14 0 0 0 426.84999999999997 498" fill="#6781eb"/><path d="M 426.86 426.86 A 71.14 71.14 0 0 1  498 498 L 426.86 426.86 A 71.14 71.14 0 0 0 498 498" fill="#cbd4f8"/><rect x="498" y="426.85714285714283" width="71.14285714285714" height="71.14285714285714" fill="none"/><path d="M 498 426.86 A 35.57 35.57 0 0 1  533.57 462.43 L 498 426.86 A 35.57 35.57 0 0 0 533.57 462.43" fill="#2c50e4"/><path d="M 533.57 462.43 A 35.57 35.57 0 0 1  569.1400000000001 426.86 L 533.57 462.43 A 35.57 35.57 0 0 0 569.1400000000001 426.86" fill="#b4c1f5"/><path d="M 498 462.43 A 35.57 35.57 0 0 1  533.57 498 L 498 462.43 A 35.57 35.57 0 0 0 533.57 498" fill="#4665e7"/><path d="M 533.57 498 A 35.57 35.57 0 0 1  569.1400000000001 462.43 L 533.57 498 A 35.57 35.57 0 0 0 569.1400000000001 462.43" fill="#b7c3f6"/><path d="M 569.14 426.86 A 71.14 71.14 0 0 1  640.28 498 L 569.14 426.86 A 71.14 71.14 0 0 0 640.28 498" fill="#4e6ce8"/><path d="M 640.29 498 A 71.14 71.14 0 0 1  711.43 426.86 L 640.29 498 A 71.14 71.14 0 0 0 711.43 426.86" fill="#eff1fd"/><path d="M 711.43 498 A 71.14 71.14 0 0 1  782.5699999999999 426.86 L 711.43 498 A 71.14 71.14 0 0 0 782.5699999999999 426.86" fill="#5a76ea"/></g></svg>