<?xml version="1.0" standalone="no"?><svg xmlns:xlink="http://www.w3.org/1999/xlink" xmlns="http://www.w3.org/2000/svg" viewBox="0 0 1000 636.3513145240014" preserveAspectRatio="xMaxYMax slice"><g transform="scale(1.441917404087259)"><rect x="0" y="0" width="693.5232857142856" height="441.33299999999997" fill="none"/><rect x="0" y="0" width="63.05" height="63.05" fill="#c6bff2"/><g transform="translate(0,0) scale(3.1525) rotate(0)"><rect width="20" height="2" fill="#d5ccfd"/><rect y="4" width="20" height="2" fill="#d5ccfd"/><rect y="8" width="20" height="2" fill="#d5ccfd"/><rect y="12" width="20" height="2" fill="#d5ccfd"/><rect y="16" width="20" height="2" fill="#d5ccfd"/></g><rect x="63.05" y="0" width="63.05" height="63.05" fill="#6067a2"/><g transform="translate(63.05,0) scale(3.1525) rotate(0)"><rect width="20" height="2" fill="#c5bef1"/><rect y="4" width="20" height="2" fill="#c5bef1"/><rect y="8" width="20" height="2" fill="#c5bef1"/><rect y="12" width="20" height="2" fill="#c5bef1"/><rect y="16" width="20" height="2" fill="#c5bef1"/></g><rect x="126.1" y="0" width="63.05" height="63.05" fill="#9e9dd3"/><g transform="translate(126.1,0) scale(3.1525) rotate(0)"><rect width="20" height="2" fill="#9393ca"/><rect y="4" width="20" height="2" fill="#9393ca"/><rect y="8" width="20" height="2" fill="#9393ca"/><rect y="12" width="20" height="2" fill="#9393ca"/><rect y="16" width="20" height="2" fill="#9393ca"/></g><rect x="189.14" y="0" width="63.05" height="63.05" fill="#cac3f5"/><g transform="translate(189.14,0) scale(3.1525) rotate(0)"><rect width="20" height="2" fill="#515a97"/><rect y="4" width="20" height="2" fill="#515a97"/><rect y="8" width="20" height="2" fill="#515a97"/><rect y="12" width="20" height="2" fill="#515a97"/><rect y="16" width="20" height="2" fill="#515a97"/></g><rect x="252.19" y="0" width="63.05" height="63.05" fill="#5b639f"/><g transform="translate(252.19,0) scale(3.1525) rotate(0)"><rect width="20" height="2" fill="#aaa7dc"/><rect y="4" width="20" height="2" fill="#aaa7dc"/><rect y="8" width="20" height="2" fill="#aaa7dc"/><rect y="12" width="20" height="2" fill="#aaa7dc"/><rect y="16" width="20" height="2" fill="#aaa7dc"/></g><rect x="315.24" y="0" width="63.05" height="63.05" fill="none"/><g transform="translate(315.24,0) scale(3.1525) rotate(0)"><rect width="20" height="2" fill="#777bb4"/><rect y="4" width="20" height="2" fill="#777bb4"/><rect y="8" width="20" height="2" fill="#777bb4"/><rect y="12" width="20" height="2" fill="#777bb4"/><rect y="16" width="20" height="2" fill="#777bb4"/></g><rect x="378.29" y="0" width="63.05" height="63.05" fill="#8184bc"/><g transform="translate(378.29,0) scale(3.1525) rotate(0)"><rect width="20" height="2" fill="#4e5794"/><rect y="4" width="20" height="2" fill="#4e5794"/><rect y="8" width="20" height="2" fill="#4e5794"/><rect y="12" width="20" height="2" fill="#4e5794"/><rect y="16" width="20" height="2" fill="#4e5794"/></g><rect x="441.33" y="0" width="63.05" height="63.05" fill="#646ba5"/><g transform="translate(441.33,0) scale(3.1525) rotate(0)"><rect width="20" height="2" fill="#565f9b"/><rect y="4" width="20" height="2" fill="#565f9b"/><rect y="8" width="20" height="2" fill="#565f9b"/><rect y="12" width="20" height="2" fill="#565f9b"/><rect y="16" width="20" height="2" fill="#565f9b"/></g><rect x="504.38" y="0" width="63.05" height="63.05" fill="#7176b0"/><g transform="translate(504.38,0) scale(3.1525) rotate(0)"><rect width="20" height="2" fill="#cbc4f6"/><rect y="4" width="20" height="2" fill="#cbc4f6"/><rect y="8" width="20" height="2" fill="#cbc4f6"/><rect y="12" width="20" height="2" fill="#cbc4f6"/><rect y="16" width="20" height="2" fill="#cbc4f6"/></g><rect x="567.43" y="0" width="63.05" height="63.05" fill="#b2aee2"/><g transform="translate(567.43,0) scale(3.1525) rotate(0)"><rect width="20" height="2" fill="#b4b0e3"/><rect y="4" width="20" height="2" fill="#b4b0e3"/><rect y="8" width="20" height="2" fill="#b4b0e3"/><rect y="12" width="20" height="2" fill="#b4b0e3"/><rect y="16" width="20" height="2" fill="#b4b0e3"/></g><rect x="630.48" y="0" width="63.05" height="63.05" fill="#7a7eb7"/><g transform="translate(630.48,0) scale(3.1525) rotate(0)"><rect width="20" height="2" fill="#8385bd"/><rect y="4" width="20" height="2" fill="#8385bd"/><rect y="8" width="20" height="2" fill="#8385bd"/><rect y="12" width="20" height="2" fill="#8385bd"/><rect y="16" width="20" height="2" fill="#8385bd"/></g><rect x="0" y="63.05" width="63.05" height="63.05" fill="#5e65a0"/><g transform="translate(0,63.05) scale(3.1525) rotate(0)"><rect width="20" height="2" fill="#9e9dd2"/><rect y="4" width="20" height="2" fill="#9e9dd2"/><rect y="8" width="20" height="2" fill="#9e9dd2"/><rect y="12" width="20" height="2" fill="#9e9dd2"/><rect y="16" width="20" height="2" fill="#9e9dd2"/></g><rect x="63.05" y="63.05" width="63.05" height="63.05" fill="#9494cb"/><g transform="translate(63.05,63.05) scale(3.1525) rotate(0)"><rect width="20" height="2" fill="#7277b1"/><rect y="4" width="20" height="2" fill="#7277b1"/><rect y="8" width="20" height="2" fill="#7277b1"/><rect y="12" width="20" height="2" fill="#7277b1"/><rect y="16" width="20" height="2" fill="#7277b1"/></g><rect x="126.1" y="63.05" width="63.05" height="63.05" fill="#b3afe3"/><g transform="translate(126.1,63.05) scale(3.1525) rotate(0)"><rect width="20" height="2" fill="#a6a4d9"/><rect y="4" width="20" height="2" fill="#a6a4d9"/><rect y="8" width="20" height="2" fill="#a6a4d9"/><rect y="12" width="20" height="2" fill="#a6a4d9"/><rect y="16" width="20" height="2" fill="#a6a4d9"/></g><rect x="189.14" y="63.05" width="63.05" height="63.05" fill="#757ab3"/><g transform="translate(189.14,63.05) scale(3.1525) rotate(0)"><rect width="20" height="2" fill="#7d81b9"/><rect y="4" width="20" height="2" fill="#7d81b9"/><rect y="8" width="20" height="2" fill="#7d81b9"/><rect y="12" width="20" height="2" fill="#7d81b9"/><rect y="16" width="20" height="2" fill="#7d81b9"/></g><rect x="252.19" y="63.05" width="63.05" height="63.05" fill="#bdb7ea"/><g transform="translate(252.19,63.05) scale(3.1525) rotate(0)"><rect width="20" height="2" fill="#a19fd5"/><rect y="4" width="20" height="2" fill="#a19fd5"/><rect y="8" width="20" height="2" fill="#a19fd5"/><rect y="12" width="20" height="2" fill="#a19fd5"/><rect y="16" width="20" height="2" fill="#a19fd5"/></g><rect x="315.24" y="63.05" width="63.05" height="63.05" fill="#c3bcef"/><g transform="translate(315.24,63.05) scale(3.1525) rotate(0)"><rect width="20" height="2" fill="#8688c0"/><rect y="4" width="20" height="2" fill="#8688c0"/><rect y="8" width="20" height="2" fill="#8688c0"/><rect y="12" width="20" height="2" fill="#8688c0"/><rect y="16" width="20" height="2" fill="#8688c0"/></g><rect x="378.29" y="63.05" width="63.05" height="63.05" fill="#59619d"/><g transform="translate(378.29,63.05) scale(3.1525) rotate(0)"><rect width="20" height="2" fill="#d2c9fb"/><rect y="4" width="20" height="2" fill="#d2c9fb"/><rect y="8" width="20" height="2" fill="#d2c9fb"/><rect y="12" width="20" height="2" fill="#d2c9fb"/><rect y="16" width="20" height="2" fill="#d2c9fb"/></g><rect x="441.33" y="63.05" width="63.05" height="63.05" fill="#8285bd"/><g transform="translate(441.33,63.05) scale(3.1525) rotate(0)"><rect width="20" height="2" fill="#afabdf"/><rect y="4" width="20" height="2" fill="#afabdf"/><rect y="8" width="20" height="2" fill="#afabdf"/><rect y="12" width="20" height="2" fill="#afabdf"/><rect y="16" width="20" height="2" fill="#afabdf"/></g><rect x="504.38" y="63.05" width="63.05" height="63.05" fill="#59619d"/><g transform="translate(504.38,63.05) scale(3.1525) rotate(0)"><rect width="20" height="2" fill="#8d8ec5"/><rect y="4" width="20" height="2" fill="#8d8ec5"/><rect y="8" width="20" height="2" fill="#8d8ec5"/><rect y="12" width="20" height="2" fill="#8d8ec5"/><rect y="16" width="20" height="2" fill="#8d8ec5"/></g><rect x="567.43" y="63.05" width="63.05" height="63.05" fill="#6f74ae"/><g transform="translate(567.43,63.05) scale(3.1525) rotate(0)"><rect width="20" height="2" fill="#485390"/><rect y="4" width="20" height="2" fill="#485390"/><rect y="8" width="20" height="2" fill="#485390"/><rect y="12" width="20" height="2" fill="#485390"/><rect y="16" width="20" height="2" fill="#485390"/></g><rect x="630.48" y="63.05" width="63.05" height="63.05" fill="#575f9b"/><g transform="translate(630.48,63.05) scale(3.1525) rotate(0)"><rect width="20" height="2" fill="#a7a5da"/><rect y="4" width="20" height="2" fill="#a7a5da"/><rect y="8" width="20" height="2" fill="#a7a5da"/><rect y="12" width="20" height="2" fill="#a7a5da"/><rect y="16" width="20" height="2" fill="#a7a5da"/></g><rect x="0" y="126.1" width="63.05" height="63.05" fill="#495390"/><g transform="translate(0,126.1) scale(3.1525) rotate(0)"><rect width="20" height="2" fill="#787cb5"/><rect y="4" width="20" height="2" fill="#787cb5"/><rect y="8" width="20" height="2" fill="#787cb5"/><rect y="12" width="20" height="2" fill="#787cb5"/><rect y="16" width="20" height="2" fill="#787cb5"/></g><rect x="63.05" y="126.1" width="63.05" height="63.05" fill="#898ac2"/><g transform="translate(63.05,126.1) scale(3.1525) rotate(0)"><rect width="20" height="2" fill="#c5bef1"/><rect y="4" width="20" height="2" fill="#c5bef1"/><rect y="8" width="20" height="2" fill="#c5bef1"/><rect y="12" width="20" height="2" fill="#c5bef1"/><rect y="16" width="20" height="2" fill="#c5bef1"/></g><rect x="126.1" y="126.1" width="63.05" height="63.05" fill="#3d4987"/><g transform="translate(126.1,126.1) scale(3.1525) rotate(0)"><rect width="20" height="2" fill="#767ab3"/><rect y="4" width="20" height="2" fill="#767ab3"/><rect y="8" width="20" height="2" fill="#767ab3"/><rect y="12" width="20" height="2" fill="#767ab3"/><rect y="16" width="20" height="2" fill="#767ab3"/></g><rect x="189.14" y="126.1" width="63.05" height="63.05" fill="#7f82ba"/><g transform="translate(189.14,126.1) scale(3.1525) rotate(0)"><rect width="20" height="2" fill="#b0ace0"/><rect y="4" width="20" height="2" fill="#b0ace0"/><rect y="8" width="20" height="2" fill="#b0ace0"/><rect y="12" width="20" height="2" fill="#b0ace0"/><rect y="16" width="20" height="2" fill="#b0ace0"/></g><rect x="252.19" y="126.1" width="63.05" height="63.05" fill="#a19fd5"/><g transform="translate(252.19,126.1) scale(3.1525) rotate(0)"><rect width="20" height="2" fill="#4c5693"/><rect y="4" width="20" height="2" fill="#4c5693"/><rect y="8" width="20" height="2" fill="#4c5693"/><rect y="12" width="20" height="2" fill="#4c5693"/><rect y="16" width="20" height="2" fill="#4c5693"/></g><rect x="315.24" y="126.1" width="63.05" height="63.05" fill="#4e5894"/><g transform="translate(315.24,126.1) scale(3.1525) rotate(0)"><rect width="20" height="2" fill="#8083bb"/><rect y="4" width="20" height="2" fill="#8083bb"/><rect y="8" width="20" height="2" fill="#8083bb"/><rect y="12" width="20" height="2" fill="#8083bb"/><rect y="16" width="20" height="2" fill="#8083bb"/></g><rect x="378.29" y="126.1" width="63.05" height="63.05" fill="#a3a1d6"/><g transform="translate(378.29,126.1) scale(3.1525) rotate(0)"><rect width="20" height="2" fill="#7075af"/><rect y="4" width="20" height="2" fill="#7075af"/><rect y="8" width="20" height="2" fill="#7075af"/><rect y="12" width="20" height="2" fill="#7075af"/><rect y="16" width="20" height="2" fill="#7075af"/></g><rect x="441.33" y="126.1" width="63.05" height="63.05" fill="#666da7"/><g transform="translate(441.33,126.1) scale(3.1525) rotate(0)"><rect width="20" height="2" fill="#555d99"/><rect y="4" width="20" height="2" fill="#555d99"/><rect y="8" width="20" height="2" fill="#555d99"/><rect y="12" width="20" height="2" fill="#555d99"/><rect y="16" width="20" height="2" fill="#555d99"/></g><rect x="504.38" y="126.1" width="63.05" height="63.05" fill="#bdb8eb"/><g transform="translate(504.38,126.1) scale(3.1525) rotate(0)"><rect width="20" height="2" fill="#d4cbfd"/><rect y="4" width="20" height="2" fill="#d4cbfd"/><rect y="8" width="20" height="2" fill="#d4cbfd"/><rect y="12" width="20" height="2" fill="#d4cbfd"/><rect y="16" width="20" height="2" fill="#d4cbfd"/></g><rect x="567.43" y="126.1" width="63.05" height="63.05" fill="#7479b2"/><g transform="translate(567.43,126.1) scale(3.1525) rotate(0)"><rect width="20" height="2" fill="#8789c0"/><rect y="4" width="20" height="2" fill="#8789c0"/><rect y="8" width="20" height="2" fill="#8789c0"/><rect y="12" width="20" height="2" fill="#8789c0"/><rect y="16" width="20" height="2" fill="#8789c0"/></g><rect x="630.48" y="126.1" width="63.05" height="63.05" fill="#8284bc"/><g transform="translate(630.48,126.1) scale(3.1525) rotate(0)"><rect width="20" height="2" fill="#cfc7f9"/><rect y="4" width="20" height="2" fill="#cfc7f9"/><rect y="8" width="20" height="2" fill="#cfc7f9"/><rect y="12" width="20" height="2" fill="#cfc7f9"/><rect y="16" width="20" height="2" fill="#cfc7f9"/></g><rect x="0" y="189.14" width="63.05" height="63.05" fill="#c1bbee"/><g transform="translate(0,189.14) scale(3.1525) rotate(0)"><rect width="20" height="2" fill="#8c8ec5"/><rect y="4" width="20" height="2" fill="#8c8ec5"/><rect y="8" width="20" height="2" fill="#8c8ec5"/><rect y="12" width="20" height="2" fill="#8c8ec5"/><rect y="16" width="20" height="2" fill="#8c8ec5"/></g><rect x="63.05" y="189.14" width="63.05" height="63.05" fill="#9091c8"/><g transform="translate(63.05,189.14) scale(3.1525) rotate(0)"><rect width="20" height="2" fill="#8587bf"/><rect y="4" width="20" height="2" fill="#8587bf"/><rect y="8" width="20" height="2" fill="#8587bf"/><rect y="12" width="20" height="2" fill="#8587bf"/><rect y="16" width="20" height="2" fill="#8587bf"/></g><rect x="126.1" y="189.14" width="63.05" height="63.05" fill="#6269a4"/><g transform="translate(126.1,189.14) scale(3.1525) rotate(0)"><rect width="20" height="2" fill="#beb8eb"/><rect y="4" width="20" height="2" fill="#beb8eb"/><rect y="8" width="20" height="2" fill="#beb8eb"/><rect y="12" width="20" height="2" fill="#beb8eb"/><rect y="16" width="20" height="2" fill="#beb8eb"/></g><rect x="189.14" y="189.14" width="63.05" height="63.05" fill="#ccc5f7"/><g transform="translate(189.14,189.14) scale(3.1525) rotate(0)"><rect width="20" height="2" fill="#6e73ad"/><rect y="4" width="20" height="2" fill="#6e73ad"/><rect y="8" width="20" height="2" fill="#6e73ad"/><rect y="12" width="20" height="2" fill="#6e73ad"/><rect y="16" width="20" height="2" fill="#6e73ad"/></g><rect x="252.19" y="189.14" width="63.05" height="63.05" fill="#6168a3"/><g transform="translate(252.19,189.14) scale(3.1525) rotate(0)"><rect width="20" height="2" fill="#a19fd5"/><rect y="4" width="20" height="2" fill="#a19fd5"/><rect y="8" width="20" height="2" fill="#a19fd5"/><rect y="12" width="20" height="2" fill="#a19fd5"/><rect y="16" width="20" height="2" fill="#a19fd5"/></g><rect x="315.24" y="189.14" width="63.05" height="63.05" fill="#c7c0f2"/><g transform="translate(315.24,189.14) scale(3.1525) rotate(0)"><rect width="20" height="2" fill="#444f8c"/><rect y="4" width="20" height="2" fill="#444f8c"/><rect y="8" width="20" height="2" fill="#444f8c"/><rect y="12" width="20" height="2" fill="#444f8c"/><rect y="16" width="20" height="2" fill="#444f8c"/></g><rect x="378.29" y="189.14" width="63.05" height="63.05" fill="#898ac2"/><g transform="translate(378.29,189.14) scale(3.1525) rotate(0)"><rect width="20" height="2" fill="#d2cafb"/><rect y="4" width="20" height="2" fill="#d2cafb"/><rect y="8" width="20" height="2" fill="#d2cafb"/><rect y="12" width="20" height="2" fill="#d2cafb"/><rect y="16" width="20" height="2" fill="#d2cafb"/></g><rect x="441.33" y="189.14" width="63.05" height="63.05" fill="#8e8fc6"/><g transform="translate(441.33,189.14) scale(3.1525) rotate(0)"><rect width="20" height="2" fill="#8d8ec5"/><rect y="4" width="20" height="2" fill="#8d8ec5"/><rect y="8" width="20" height="2" fill="#8d8ec5"/><rect y="12" width="20" height="2" fill="#8d8ec5"/><rect y="16" width="20" height="2" fill="#8d8ec5"/></g><rect x="504.38" y="189.14" width="63.05" height="63.05" fill="#9595cb"/><g transform="translate(504.38,189.14) scale(3.1525) rotate(0)"><rect width="20" height="2" fill="#a6a3d8"/><rect y="4" width="20" height="2" fill="#a6a3d8"/><rect y="8" width="20" height="2" fill="#a6a3d8"/><rect y="12" width="20" height="2" fill="#a6a3d8"/><rect y="16" width="20" height="2" fill="#a6a3d8"/></g><rect x="567.43" y="189.14" width="63.05" height="63.05" fill="#b6b1e5"/><g transform="translate(567.43,189.14) scale(3.1525) rotate(0)"><rect width="20" height="2" fill="#d0c8f9"/><rect y="4" width="20" height="2" fill="#d0c8f9"/><rect y="8" width="20" height="2" fill="#d0c8f9"/><rect y="12" width="20" height="2" fill="#d0c8f9"/><rect y="16" width="20" height="2" fill="#d0c8f9"/></g><rect x="630.48" y="189.14" width="63.05" height="63.05" fill="#6f74ae"/><g transform="translate(630.48,189.14) scale(3.1525) rotate(0)"><rect width="20" height="2" fill="#8f90c7"/><rect y="4" width="20" height="2" fill="#8f90c7"/><rect y="8" width="20" height="2" fill="#8f90c7"/><rect y="12" width="20" height="2" fill="#8f90c7"/><rect y="16" width="20" height="2" fill="#8f90c7"/></g><rect x="0" y="252.19" width="63.05" height="63.05" fill="#7075af"/><g transform="translate(0,252.19) scale(3.1525) rotate(0)"><rect width="20" height="2" fill="#8b8cc4"/><rect y="4" width="20" height="2" fill="#8b8cc4"/><rect y="8" width="20" height="2" fill="#8b8cc4"/><rect y="12" width="20" height="2" fill="#8b8cc4"/><rect y="16" width="20" height="2" fill="#8b8cc4"/></g><rect x="63.05" y="252.19" width="63.05" height="63.05" fill="#7f82ba"/><g transform="translate(63.05,252.19) scale(3.1525) rotate(0)"><rect width="20" height="2" fill="#414d8a"/><rect y="4" width="20" height="2" fill="#414d8a"/><rect y="8" width="20" height="2" fill="#414d8a"/><rect y="12" width="20" height="2" fill="#414d8a"/><rect y="16" width="20" height="2" fill="#414d8a"/></g><rect x="126.1" y="252.19" width="63.05" height="63.05" fill="#c9c2f4"/><g transform="translate(126.1,252.19) scale(3.1525) rotate(0)"><rect width="20" height="2" fill="#d1c9fa"/><rect y="4" width="20" height="2" fill="#d1c9fa"/><rect y="8" width="20" height="2" fill="#d1c9fa"/><rect y="12" width="20" height="2" fill="#d1c9fa"/><rect y="16" width="20" height="2" fill="#d1c9fa"/></g><rect x="189.14" y="252.19" width="63.05" height="63.05" fill="#9b9ad0"/><g transform="translate(189.14,252.19) scale(3.1525) rotate(0)"><rect width="20" height="2" fill="#9999cf"/><rect y="4" width="20" height="2" fill="#9999cf"/><rect y="8" width="20" height="2" fill="#9999cf"/><rect y="12" width="20" height="2" fill="#9999cf"/><rect y="16" width="20" height="2" fill="#9999cf"/></g><rect x="252.19" y="252.19" width="63.05" height="63.05" fill="#cbc3f5"/><g transform="translate(252.19,252.19) scale(3.1525) rotate(0)"><rect width="20" height="2" fill="#c8c1f3"/><rect y="4" width="20" height="2" fill="#c8c1f3"/><rect y="8" width="20" height="2" fill="#c8c1f3"/><rect y="12" width="20" height="2" fill="#c8c1f3"/><rect y="16" width="20" height="2" fill="#c8c1f3"/></g><rect x="315.24" y="252.19" width="63.05" height="63.05" fill="#8688c0"/><g transform="translate(315.24,252.19) scale(3.1525) rotate(0)"><rect width="20" height="2" fill="#a6a3d8"/><rect y="4" width="20" height="2" fill="#a6a3d8"/><rect y="8" width="20" height="2" fill="#a6a3d8"/><rect y="12" width="20" height="2" fill="#a6a3d8"/><rect y="16" width="20" height="2" fill="#a6a3d8"/></g><rect x="378.29" y="252.19" width="63.05" height="63.05" fill="#8c8dc4"/><g transform="translate(378.29,252.19) scale(3.1525) rotate(0)"><rect width="20" height="2" fill="#696fa9"/><rect y="4" width="20" height="2" fill="#696fa9"/><rect y="8" width="20" height="2" fill="#696fa9"/><rect y="12" width="20" height="2" fill="#696fa9"/><rect y="16" width="20" height="2" fill="#696fa9"/></g><rect x="441.33" y="252.19" width="63.05" height="63.05" fill="#6067a2"/><g transform="translate(441.33,252.19) scale(3.1525) rotate(0)"><rect width="20" height="2" fill="#444f8c"/><rect y="4" width="20" height="2" fill="#444f8c"/><rect y="8" width="20" height="2" fill="#444f8c"/><rect y="12" width="20" height="2" fill="#444f8c"/><rect y="16" width="20" height="2" fill="#444f8c"/></g><rect x="504.38" y="252.19" width="63.05" height="63.05" fill="#a7a5da"/><g transform="translate(504.38,252.19) scale(3.1525) rotate(0)"><rect width="20" height="2" fill="#bbb5e9"/><rect y="4" width="20" height="2" fill="#bbb5e9"/><rect y="8" width="20" height="2" fill="#bbb5e9"/><rect y="12" width="20" height="2" fill="#bbb5e9"/><rect y="16" width="20" height="2" fill="#bbb5e9"/></g><rect x="567.43" y="252.19" width="63.05" height="63.05" fill="#797cb5"/><g transform="translate(567.43,252.19) scale(3.1525) rotate(0)"><rect width="20" height="2" fill="#a6a3d8"/><rect y="4" width="20" height="2" fill="#a6a3d8"/><rect y="8" width="20" height="2" fill="#a6a3d8"/><rect y="12" width="20" height="2" fill="#a6a3d8"/><rect y="16" width="20" height="2" fill="#a6a3d8"/></g><rect x="630.48" y="252.19" width="63.05" height="63.05" fill="#646ba6"/><g transform="translate(630.48,252.19) scale(3.1525) rotate(0)"><rect width="20" height="2" fill="#45508e"/><rect y="4" width="20" height="2" fill="#45508e"/><rect y="8" width="20" height="2" fill="#45508e"/><rect y="12" width="20" height="2" fill="#45508e"/><rect y="16" width="20" height="2" fill="#45508e"/></g><rect x="0" y="315.24" width="63.05" height="63.05" fill="#aeaadf"/><g transform="translate(0,315.24) scale(3.1525) rotate(0)"><rect width="20" height="2" fill="#414c8a"/><rect y="4" width="20" height="2" fill="#414c8a"/><rect y="8" width="20" height="2" fill="#414c8a"/><rect y="12" width="20" height="2" fill="#414c8a"/><rect y="16" width="20" height="2" fill="#414c8a"/></g><rect x="63.05" y="315.24" width="63.05" height="63.05" fill="#495390"/><g transform="translate(63.05,315.24) scale(3.1525) rotate(0)"><rect width="20" height="2" fill="#898ac2"/><rect y="4" width="20" height="2" fill="#898ac2"/><rect y="8" width="20" height="2" fill="#898ac2"/><rect y="12" width="20" height="2" fill="#898ac2"/><rect y="16" width="20" height="2" fill="#898ac2"/></g><rect x="126.1" y="315.24" width="63.05" height="63.05" fill="#6d72ac"/><g transform="translate(126.1,315.24) scale(3.1525) rotate(0)"><rect width="20" height="2" fill="#a4a2d7"/><rect y="4" width="20" height="2" fill="#a4a2d7"/><rect y="8" width="20" height="2" fill="#a4a2d7"/><rect y="12" width="20" height="2" fill="#a4a2d7"/><rect y="16" width="20" height="2" fill="#a4a2d7"/></g><rect x="189.14" y="315.24" width="63.05" height="63.05" fill="#5c649f"/><g transform="translate(189.14,315.24) scale(3.1525) rotate(0)"><rect width="20" height="2" fill="#565f9b"/><rect y="4" width="20" height="2" fill="#565f9b"/><rect y="8" width="20" height="2" fill="#565f9b"/><rect y="12" width="20" height="2" fill="#565f9b"/><rect y="16" width="20" height="2" fill="#565f9b"/></g><rect x="252.19" y="315.24" width="63.05" height="63.05" fill="#565f9a"/><g transform="translate(252.19,315.24) scale(3.1525) rotate(0)"><rect width="20" height="2" fill="#656ca6"/><rect y="4" width="20" height="2" fill="#656ca6"/><rect y="8" width="20" height="2" fill="#656ca6"/><rect y="12" width="20" height="2" fill="#656ca6"/><rect y="16" width="20" height="2" fill="#656ca6"/></g><rect x="315.24" y="315.24" width="63.05" height="63.05" fill="#a7a5da"/><g transform="translate(315.24,315.24) scale(3.1525) rotate(0)"><rect width="20" height="2" fill="#8587bf"/><rect y="4" width="20" height="2" fill="#8587bf"/><rect y="8" width="20" height="2" fill="#8587bf"/><rect y="12" width="20" height="2" fill="#8587bf"/><rect y="16" width="20" height="2" fill="#8587bf"/></g><rect x="378.29" y="315.24" width="63.05" height="63.05" fill="#9696cc"/><g transform="translate(378.29,315.24) scale(3.1525) rotate(0)"><rect width="20" height="2" fill="#59619c"/><rect y="4" width="20" height="2" fill="#59619c"/><rect y="8" width="20" height="2" fill="#59619c"/><rect y="12" width="20" height="2" fill="#59619c"/><rect y="16" width="20" height="2" fill="#59619c"/></g><rect x="441.33" y="315.24" width="63.05" height="63.05" fill="#a09fd4"/><g transform="translate(441.33,315.24) scale(3.1525) rotate(0)"><rect width="20" height="2" fill="#6f74ae"/><rect y="4" width="20" height="2" fill="#6f74ae"/><rect y="8" width="20" height="2" fill="#6f74ae"/><rect y="12" width="20" height="2" fill="#6f74ae"/><rect y="16" width="20" height="2" fill="#6f74ae"/></g><rect x="504.38" y="315.24" width="63.05" height="63.05" fill="#a6a4d9"/><g transform="translate(504.38,315.24) scale(3.1525) rotate(0)"><rect width="20" height="2" fill="#beb8eb"/><rect y="4" width="20" height="2" fill="#beb8eb"/><rect y="8" width="20" height="2" fill="#beb8eb"/><rect y="12" width="20" height="2" fill="#beb8eb"/><rect y="16" width="20" height="2" fill="#beb8eb"/></g><rect x="567.43" y="315.24" width="63.05" height="63.05" fill="#5c639f"/><g transform="translate(567.43,315.24) scale(3.1525) rotate(0)"><rect width="20" height="2" fill="#686ea9"/><rect y="4" width="20" height="2" fill="#686ea9"/><rect y="8" width="20" height="2" fill="#686ea9"/><rect y="12" width="20" height="2" fill="#686ea9"/><rect y="16" width="20" height="2" fill="#686ea9"/></g><rect x="630.48" y="315.24" width="63.05" height="63.05" fill="#8486be"/><g transform="translate(630.48,315.24) scale(3.1525) rotate(0)"><rect width="20" height="2" fill="#6f75ae"/><rect y="4" width="20" height="2" fill="#6f75ae"/><rect y="8" width="20" height="2" fill="#6f75ae"/><rect y="12" width="20" height="2" fill="#6f75ae"/><rect y="16" width="20" height="2" fill="#6f75ae"/></g><rect x="0" y="378.29" width="63.05" height="63.05" fill="#424d8b"/><g transform="translate(0,378.29) scale(3.1525) rotate(0)"><rect width="20" height="2" fill="#666ca7"/><rect y="4" width="20" height="2" fill="#666ca7"/><rect y="8" width="20" height="2" fill="#666ca7"/><rect y="12" width="20" height="2" fill="#666ca7"/><rect y="16" width="20" height="2" fill="#666ca7"/></g><rect x="63.05" y="378.29" width="63.05" height="63.05" fill="#a5a3d8"/><g transform="translate(63.05,378.29) scale(3.1525) rotate(0)"><rect width="20" height="2" fill="#afabdf"/><rect y="4" width="20" height="2" fill="#afabdf"/><rect y="8" width="20" height="2" fill="#afabdf"/><rect y="12" width="20" height="2" fill="#afabdf"/><rect y="16" width="20" height="2" fill="#afabdf"/></g><rect x="126.1" y="378.29" width="63.05" height="63.05" fill="#cec6f8"/><g transform="translate(126.1,378.29) scale(3.1525) rotate(0)"><rect width="20" height="2" fill="#525b97"/><rect y="4" width="20" height="2" fill="#525b97"/><rect y="8" width="20" height="2" fill="#525b97"/><rect y="12" width="20" height="2" fill="#525b97"/><rect y="16" width="20" height="2" fill="#525b97"/></g><rect x="189.14" y="378.29" width="63.05" height="63.05" fill="#9393ca"/><g transform="translate(189.14,378.29) scale(3.1525) rotate(0)"><rect width="20" height="2" fill="#7e81ba"/><rect y="4" width="20" height="2" fill="#7e81ba"/><rect y="8" width="20" height="2" fill="#7e81ba"/><rect y="12" width="20" height="2" fill="#7e81ba"/><rect y="16" width="20" height="2" fill="#7e81ba"/></g><rect x="252.19" y="378.29" width="63.05" height="63.05" fill="#8183bc"/><g transform="translate(252.19,378.29) scale(3.1525) rotate(0)"><rect width="20" height="2" fill="#c6c0f2"/><rect y="4" width="20" height="2" fill="#c6c0f2"/><rect y="8" width="20" height="2" fill="#c6c0f2"/><rect y="12" width="20" height="2" fill="#c6c0f2"/><rect y="16" width="20" height="2" fill="#c6c0f2"/></g><rect x="315.24" y="378.29" width="63.05" height="63.05" fill="#7378b1"/><g transform="translate(315.24,378.29) scale(3.1525) rotate(0)"><rect width="20" height="2" fill="#8285bd"/><rect y="4" width="20" height="2" fill="#8285bd"/><rect y="8" width="20" height="2" fill="#8285bd"/><rect y="12" width="20" height="2" fill="#8285bd"/><rect y="16" width="20" height="2" fill="#8285bd"/></g><rect x="378.29" y="378.29" width="63.05" height="63.05" fill="#9f9dd3"/><g transform="translate(378.29,378.29) scale(3.1525) rotate(0)"><rect width="20" height="2" fill="#cac3f5"/><rect y="4" width="20" height="2" fill="#cac3f5"/><rect y="8" width="20" height="2" fill="#cac3f5"/><rect y="12" width="20" height="2" fill="#cac3f5"/><rect y="16" width="20" height="2" fill="#cac3f5"/></g><rect x="441.33" y="378.29" width="63.05" height="63.05" fill="#515a97"/><g transform="translate(441.33,378.29) scale(3.1525) rotate(0)"><rect width="20" height="2" fill="#6168a3"/><rect y="4" width="20" height="2" fill="#6168a3"/><rect y="8" width="20" height="2" fill="#6168a3"/><rect y="12" width="20" height="2" fill="#6168a3"/><rect y="16" width="20" height="2" fill="#6168a3"/></g><rect x="504.38" y="378.29" width="63.05" height="63.05" fill="#afabdf"/><g transform="translate(504.38,378.29) scale(3.1525) rotate(0)"><rect width="20" height="2" fill="#6269a4"/><rect y="4" width="20" height="2" fill="#6269a4"/><rect y="8" width="20" height="2" fill="#6269a4"/><rect y="12" width="20" height="2" fill="#6269a4"/><rect y="16" width="20" height="2" fill="#6269a4"/></g><rect x="567.43" y="378.29" width="63.05" height="63.05" fill="#9998cf"/><g transform="translate(567.43,378.29) scale(3.1525) rotate(0)"><rect width="20" height="2" fill="#8386be"/><rect y="4" width="20" height="2" fill="#8386be"/><rect y="8" width="20" height="2" fill="#8386be"/><rect y="12" width="20" height="2" fill="#8386be"/><rect y="16" width="20" height="2" fill="#8386be"/></g><rect x="630.48" y="378.29" width="63.05" height="63.05" fill="#cfc7f8"/><g transform="translate(630.48,378.29) scale(3.1525) rotate(0)"><rect width="20" height="2" fill="#adaade"/><rect y="4" width="20" height="2" fill="#adaade"/><rect y="8" width="20" height="2" fill="#adaade"/><rect y="12" width="20" height="2" fill="#adaade"/><rect y="16" width="20" height="2" fill="#adaade"/></g></g></svg>